{
  "accessors": [
    {
      "bufferView": 2,
      "componentType": 5126,
      "count": 3632,
      "max": [0.5487282872200012, 0.25105881690979004, 2.1394331455230713],
      "min": [
        -0.5486865639686584, -0.25105881690979004, -0.0010678906692191958
      ],
      "type": "VEC3"
    },
    {
      "bufferView": 2,
      "byteOffset": 43584,
      "componentType": 5126,
      "count": 3632,
      "max": [1.0, 1.0, 1.0],
      "min": [-1.0, -1.0, -1.0],
      "type": "VEC3"
    },
    {
      "bufferView": 3,
      "componentType": 5126,
      "count": 3632,
      "max": [1.0, 1.0, 1.0, 1.0],
      "min": [-1.0, -1.0, -1.0, 1.0],
      "type": "VEC4"
    },
    {
      "bufferView": 1,
      "componentType": 5126,
      "count": 3632,
      "max": [0.9957431554794312, 0.9970352053642273],
      "min": [0.002567991614341736, 0.0029646633192896843],
      "type": "VEC2"
    },
    {
      "bufferView": 1,
      "byteOffset": 29056,
      "componentType": 5126,
      "count": 3632,
      "max": [0.9957431554794312, 0.9970352053642273],
      "min": [0.002567991614341736, 0.0029646633192896843],
      "type": "VEC2"
    },
    {
      "bufferView": 1,
      "byteOffset": 58112,
      "componentType": 5126,
      "count": 3632,
      "max": [0.9957431554794312, 0.9970352053642273],
      "min": [0.002567991614341736, 0.0029646633192896843],
      "type": "VEC2"
    },
    {
      "bufferView": 0,
      "componentType": 5125,
      "count": 13044,
      "type": "SCALAR"
    }
  ],
  "asset": {
    "extras": {
      "author": "mohamedhussien (https://sketchfab.com/mohamedhussien)",
      "license": "CC-BY-4.0 (http://creativecommons.org/licenses/by/4.0/)",
      "source": "https://sketchfab.com/3d-models/steel-frame-shelves-01-4k-5b222d046cd14f43afb6d3dcb45dc540",
      "title": "steel_frame_shelves_01_4k"
    },
    "generator": "Sketchfab-12.56.0",
    "version": "2.0"
  },
  "bufferViews": [
    {
      "buffer": 0,
      "byteLength": 52176,
      "name": "floatBufferViews",
      "target": 34963
    },
    {
      "buffer": 0,
      "byteLength": 87168,
      "byteOffset": 52176,
      "byteStride": 8,
      "name": "floatBufferViews",
      "target": 34962
    },
    {
      "buffer": 0,
      "byteLength": 87168,
      "byteOffset": 139344,
      "byteStride": 12,
      "name": "floatBufferViews",
      "target": 34962
    },
    {
      "buffer": 0,
      "byteLength": 58112,
      "byteOffset": 226512,
      "byteStride": 16,
      "name": "floatBufferViews",
      "target": 34962
    }
  ],
  "buffers": [
    {
      "byteLength": 284624,
      "uri": "scene.bin"
    }
  ],
  "images": [
    {
      "uri": "textures/steel_frame_shelves_01_baseColor.jpeg"
    },
    {
      "uri": "textures/steel_frame_shelves_01_metallicRoughness.png"
    },
    {
      "uri": "textures/steel_frame_shelves_01_normal.png"
    }
  ],
  "materials": [
    {
      "doubleSided": true,
      "name": "steel_frame_shelves_01",
      "normalTexture": {
        "index": 2
      },
      "occlusionTexture": {
        "index": 1
      },
      "pbrMetallicRoughness": {
        "baseColorTexture": {
          "index": 0
        },
        "metallicRoughnessTexture": {
          "index": 1
        }
      }
    }
  ],
  "meshes": [
    {
      "name": "steel_frame_shelves_01_steel_frame_shelves_01_0",
      "primitives": [
        {
          "attributes": {
            "NORMAL": 1,
            "POSITION": 0,
            "TANGENT": 2,
            "TEXCOORD_0": 3,
            "TEXCOORD_1": 4,
            "TEXCOORD_2": 5
          },
          "indices": 6,
          "material": 0,
          "mode": 4
        }
      ]
    }
  ],
  "nodes": [
    {
      "children": [1],
      "matrix": [
        1.0, 0.0, 0.0, 0.0, 0.0, 2.220446049250313e-16, -1.0, 0.0, 0.0, 1.0,
        2.220446049250313e-16, 0.0, 0.0, 0.0, 0.0, 1.0
      ],
      "name": "Sketchfab_model"
    },
    {
      "children": [2],
      "matrix": [
        0.009999999776482582, 0.0, 0.0, 0.0, 0.0, 0.0, 0.009999999776482582,
        0.0, 0.0, -0.009999999776482582, 0.0, 0.0, 0.0, 0.0, 0.0, 1.0
      ],
      "name": "steel_frame_shelves_01_4k.fbx"
    },
    {
      "children": [3],
      "name": "RootNode"
    },
    {
      "children": [4],
      "matrix": [
        100.0, 0.0, 0.0, 0.0, 0.0, -4.371139006309477e-6, -99.9999999999999,
        0.0, 0.0, 99.9999999999999, -4.371139006309477e-6, 0.0, 0.0, 0.0, 0.0,
        1.0
      ],
      "name": "steel_frame_shelves_01"
    },
    {
      "mesh": 0,
      "name": "steel_frame_shelves_01_steel_frame_shelves_01_0"
    }
  ],
  "samplers": [
    {
      "magFilter": 9729,
      "minFilter": 9987,
      "wrapS": 10497,
      "wrapT": 10497
    }
  ],
  "scene": 0,
  "scenes": [
    {
      "name": "Sketchfab_Scene",
      "nodes": [0]
    }
  ],
  "textures": [
    {
      "sampler": 0,
      "source": 0
    },
    {
      "sampler": 0,
      "source": 1
    },
    {
      "sampler": 0,
      "source": 2
    }
  ]
}
