{
  "accessors": [
    {
      "bufferView": 2,
      "componentType": 5126,
      "count": 1536,
      "max": [
        0.19600005447864532,
        0.20440959930419922,
        0.2054409384727478
      ],
      "min": [
        -0.19599999487400055,
        -0.2043902724981308,
        -0.20545905828475952
      ],
      "type": "VEC3"
    },
    {
      "bufferView": 2,
      "byteOffset": 18432,
      "componentType": 5126,
      "count": 1536,
      "max": [
        1.0,
        1.0,
        1.0
      ],
      "min": [
        -1.0,
        -1.0,
        -1.0
      ],
      "type": "VEC3"
    },
    {
      "bufferView": 1,
      "componentType": 5126,
      "count": 1536,
      "max": [
        1.0000001192092896,
        1.0000001192092896
      ],
      "min": [
        0.0,
        0.0
      ],
      "type": "VEC2"
    },
    {
      "bufferView": 0,
      "componentType": 5125,
      "count": 2256,
      "type": "SCALAR"
    },
    {
      "bufferView": 2,
      "byteOffset": 36864,
      "componentType": 5126,
      "count": 1766,
      "max": [
        0.1849062740802765,
        0.20489618182182312,
        0.19434723258018494
      ],
      "min": [
        -0.18490633368492126,
        -0.20490698516368866,
        -0.19436559081077576
      ],
      "type": "VEC3"
    },
    {
      "bufferView": 2,
      "byteOffset": 58056,
      "componentType": 5126,
      "count": 1766,
      "max": [
        0.9951858520507813,
        1.0,
        1.0
      ],
      "min": [
        -0.9951858520507813,
        -1.0,
        -1.0
      ],
      "type": "VEC3"
    },
    {
      "bufferView": 1,
      "byteOffset": 12288,
      "componentType": 5126,
      "count": 1766,
      "max": [
        0.0,
        0.0
      ],
      "min": [
        0.0,
        0.0
      ],
      "type": "VEC2"
    },
    {
      "bufferView": 0,
      "byteOffset": 9024,
      "componentType": 5125,
      "count": 2952,
      "type": "SCALAR"
    },
    {
      "bufferView": 2,
      "byteOffset": 79248,
      "componentType": 5126,
      "count": 72,
      "max": [
        0.18236829340457916,
        0.20454025268554688,
        0.19184723496437073
      ],
      "min": [
        -0.18236836791038513,
        -0.20455105602741241,
        -0.19186559319496155
      ],
      "type": "VEC3"
    },
    {
      "bufferView": 2,
      "byteOffset": 80112,
      "componentType": 5126,
      "count": 72,
      "max": [
        0.0,
        1.0,
        3.219729251213721e-06
      ],
      "min": [
        0.0,
        -1.0,
        -3.2197058317251503e-06
      ],
      "type": "VEC3"
    },
    {
      "bufferView": 1,
      "byteOffset": 26416,
      "componentType": 5126,
      "count": 72,
      "max": [
        0.0,
        0.0
      ],
      "min": [
        0.0,
        0.0
      ],
      "type": "VEC2"
    },
    {
      "bufferView": 0,
      "byteOffset": 20832,
      "componentType": 5125,
      "count": 168,
      "type": "SCALAR"
    }
  ],
  "asset": {
    "extras": {
      "author": "Erik Blaho (https://sketchfab.com/blahoerik)",
      "license": "CC-BY-4.0 (http://creativecommons.org/licenses/by/4.0/)",
      "source": "https://sketchfab.com/3d-models/kallax-42x42-e57fd4dd7ce24927979ba27c08782e48",
      "title": "KALLAX 42x42"
    },
    "generator": "Sketchfab-12.63.0",
    "version": "2.0"
  },
  "bufferViews": [
    {
      "buffer": 0,
      "byteLength": 21504,
      "name": "floatBufferViews",
      "target": 34963
    },
    {
      "buffer": 0,
      "byteLength": 26992,
      "byteOffset": 21504,
      "byteStride": 8,
      "name": "floatBufferViews",
      "target": 34962
    },
    {
      "buffer": 0,
      "byteLength": 80976,
      "byteOffset": 48496,
      "byteStride": 12,
      "name": "floatBufferViews",
      "target": 34962
    }
  ],
  "buffers": [
    {
      "byteLength": 129472,
      "uri": "scene.bin"
    }
  ],
  "materials": [
    {
      "doubleSided": true,
      "name": "KALLAX_MAIN_COLOR",
      "pbrMetallicRoughness": {
        "metallicFactor": 0.0,
        "roughnessFactor": 0.32999999999999996
      }
    },
    {
      "doubleSided": true,
      "name": "KALLAX_SCREW",
      "pbrMetallicRoughness": {
        "baseColorFactor": [
          0.8,
          0.8,
          0.8,
          1.0
        ],
        "metallicFactor": 0.8,
        "roughnessFactor": 0.665
      }
    },
    {
      "doubleSided": true,
      "name": "KALLAX_SCREW_HOLE",
      "pbrMetallicRoughness": {
        "baseColorFactor": [
          0.6204585874482292,
          0.6204585874482292,
          0.6204585874482292,
          1.0
        ],
        "metallicFactor": 0.8,
        "roughnessFactor": 0.663
      }
    }
  ],
  "meshes": [
    {
      "name": "KALLAX_ 42x42_KALLAX_MAIN_COLOR_0",
      "primitives": [
        {
          "attributes": {
            "NORMAL": 1,
            "POSITION": 0,
            "TEXCOORD_0": 2
          },
          "indices": 3,
          "material": 0,
          "mode": 4
        }
      ]
    },
    {
      "name": "KALLAX_ 42x42_KALLAX_SCREW_0",
      "primitives": [
        {
          "attributes": {
            "NORMAL": 5,
            "POSITION": 4,
            "TEXCOORD_0": 6
          },
          "indices": 7,
          "material": 1,
          "mode": 4
        }
      ]
    },
    {
      "name": "KALLAX_ 42x42_KALLAX_SCREW_HOLE_0",
      "primitives": [
        {
          "attributes": {
            "NORMAL": 9,
            "POSITION": 8,
            "TEXCOORD_0": 10
          },
          "indices": 11,
          "material": 2,
          "mode": 4
        }
      ]
    }
  ],
  "nodes": [
    {
      "children": [
        1
      ],
      "matrix": [
        0.009999999776482582,
        0.0,
        0.0,
        0.0,
        0.0,
        2.2204459996194763e-18,
        -0.009999999776482582,
        0.0,
        0.0,
        0.009999999776482582,
        2.2204459996194763e-18,
        0.0,
        0.0,
        0.0,
        0.0,
        1.0
      ],
      "name": "Sketchfab_model"
    },
    {
      "children": [
        2
      ],
      "matrix": [
        1.0,
        0.0,
        0.0,
        0.0,
        0.0,
        0.0,
        1.0,
        0.0,
        0.0,
        -1.0,
        0.0,
        0.0,
        0.0,
        0.0,
        0.0,
        1.0
      ],
      "name": "KALLAX 42x42.fbx"
    },
    {
      "children": [
        3
      ],
      "name": "RootNode"
    },
    {
      "children": [
        4,
        5,
        6
      ],
      "matrix": [
        100.0,
        0.0,
        0.0,
        0.0,
        0.0,
        -99.99999999999889,
        1.5099579909783709e-05,
        0.0,
        0.0,
        -1.5099579909783709e-05,
        -99.99999999999889,
        0.0,
        3.2715697670937516e-06,
        21.0,
        0.0,
        1.0
      ],
      "name": "KALLAX_ 42x42"
    },
    {
      "mesh": 0,
      "name": "KALLAX_ 42x42_KALLAX_MAIN_COLOR_0"
    },
    {
      "mesh": 1,
      "name": "KALLAX_ 42x42_KALLAX_SCREW_0"
    },
    {
      "mesh": 2,
      "name": "KALLAX_ 42x42_KALLAX_SCREW_HOLE_0"
    }
  ],
  "scene": 0,
  "scenes": [
    {
      "name": "Sketchfab_Scene",
      "nodes": [
        0
      ]
    }
  ]
}
